<svg width="128" height="58" viewBox="0 0 128 58" fill="none" xmlns="http://www.w3.org/2000/svg">
<path d="M127.97 37.3061C127.834 36.0656 127.766 34.8166 127.574 33.5846C126.734 28.2177 124.739 23.3922 120.524 19.7731C115.98 15.8726 110.622 14.5383 104.728 15.1991C97.6861 15.9877 92.4817 19.5088 89.2807 25.8178C87.0685 30.1872 86.5485 34.872 87.1666 39.706C87.8997 45.4864 90.3079 50.3631 95.0434 53.8842C100.597 58.0106 106.884 58.7054 113.487 57.3925C118.806 56.331 122.817 53.3258 125.732 48.8114C126.517 47.6008 126.287 46.8335 125.004 46.339C123.043 45.5887 121.074 44.8726 119.1 44.1692C118.35 43.9007 117.711 44.0371 117.178 44.7362C114.109 48.7773 109.923 49.7407 105.188 48.8541C100.742 48.0185 97.4005 43.8666 97.5156 39.3352H99.0202C108.073 39.3352 117.131 39.3394 126.189 39.3309C127.646 39.3309 128.132 38.7597 127.97 37.3061ZM97.4772 32.114C97.5028 27.5613 102.311 23.3283 107.37 23.3411C112.506 23.3539 117.498 27.6337 117.498 32.114H97.4772Z" fill="white"/>
<path d="M0.0180951 29.2408C0.0180951 25.4043 0.0138327 21.5677 0.0180951 17.7312C0.0180951 16.2776 0.342035 15.9664 1.79977 15.9621C3.70078 15.9579 5.6018 15.9579 7.50282 15.9621C8.96481 15.9664 9.35695 16.3543 9.35695 17.825C9.36122 24.8117 9.33138 31.7985 9.38253 38.7853C9.39105 40.1408 9.56155 41.5348 9.92811 42.8349C10.917 46.3049 13.8495 48.6366 17.4597 48.8924C18.7427 48.9819 20.0768 49.0288 21.3257 48.7901C26.1805 47.8736 28.8658 44.3696 28.8829 39.024C28.9085 32.0372 28.8871 25.0505 28.8914 18.0637C28.8914 16.171 29.1003 15.9621 30.9544 15.9621C32.8554 15.9621 34.7564 15.9749 36.6574 15.9579C37.723 15.9451 38.2345 16.4694 38.2345 17.4967C38.2388 25.0505 38.4519 32.6084 38.1791 40.1494C37.8339 49.6384 32.28 55.9858 22.9369 57.5886C15.8315 58.812 9.31433 57.3669 4.30178 51.7144C1.55681 48.6153 0.252526 44.8385 0.0820307 40.7504C-0.0799394 36.9224 0.0479317 33.0774 0.0479317 29.2408C0.039407 29.2408 0.0266199 29.2408 0.0180951 29.2408Z" fill="white"/>
<path d="M72.8663 55.99C66.315 59.3449 56.9549 58.407 51.8613 53.8714C48.8009 51.1432 47.1471 47.6519 46.674 43.6406C46.5419 42.4897 46.4737 41.3344 46.4311 40.1707V30.2937C46.5675 29.5307 47.0832 29.1939 47.9911 29.1939C50.0115 29.1982 52.0361 29.1726 54.0565 29.2024C55.3181 29.2195 55.7103 29.633 55.7188 30.899C55.7358 34.1686 55.6165 37.4467 55.787 40.7078C55.868 42.2339 56.2686 43.841 56.925 45.2221C58.3103 48.1422 61.8736 49.6682 65.2452 49.0672C69.0046 48.3979 71.3318 46.0619 71.8817 42.3703C72.0053 41.5348 72.0735 40.6865 72.0948 39.8424C72.1246 38.8108 72.5722 38.2567 73.6335 38.2567C75.7391 38.2609 77.8405 38.2609 79.9418 38.2567C80.7858 38.2524 81.4209 38.5807 81.4592 39.4631C81.7192 44.9962 79.9674 52.3581 72.8663 55.99Z" fill="white"/>
<path d="M63.6042 25.2551C61.0169 25.2551 58.4296 25.2636 55.8424 25.2551C50.621 25.2338 46.4353 21.0605 46.4311 15.8769C46.4268 11.2347 46.4311 6.59245 46.4311 1.95024C46.4311 0.411362 46.8275 0.0149199 48.3577 0.00639423C50.1777 -0.00213141 51.9977 -0.00213141 53.8135 0.00639423C55.2627 0.0149199 55.7017 0.441202 55.706 1.86498C55.7145 6.14486 55.7358 10.4205 55.6889 14.7003C55.6762 15.6978 55.9788 16.0175 56.989 16.009C61.9205 15.9664 66.8521 15.9877 71.7837 15.992C73.382 15.992 73.6761 16.2904 73.6847 17.906C73.6932 19.7219 73.6932 21.5379 73.6847 23.3539C73.6761 24.8885 73.3053 25.2508 71.7282 25.2551C69.0216 25.2593 66.3108 25.2551 63.6042 25.2551Z" fill="#F08219"/>
</svg>
